<svg width="15" height="16" viewBox="0 0 15 16" fill="none" xmlns="http://www.w3.org/2000/svg">
<path fill-rule="evenodd" clip-rule="evenodd" d="M5.11199 1.00761C4.31636 1.01345 3.55564 1.33511 2.99717 1.90183L1.18221 3.74362C0.62374 4.31034 0.313276 5.0757 0.319113 5.87133L0.364388 12.0427C0.376543 13.6995 1.72951 15.0328 3.38632 15.0206L11.3861 14.962C13.0429 14.9498 14.3762 13.5968 14.364 11.94L14.3187 5.76862C14.3129 4.97299 13.9912 4.21227 13.4245 3.6538L11.5827 1.83884C11.016 1.28037 10.2506 0.969909 9.45502 0.975746L5.11199 1.00761ZM4.42172 3.30563C4.60788 3.11672 4.86145 3.0095 5.12666 3.00755L9.46969 2.97569C9.7349 2.97375 9.99002 3.07724 10.1789 3.26339L12.0207 5.07835C12.2096 5.26451 12.3168 5.51808 12.3188 5.78329L12.3641 11.9547C12.3681 12.507 11.9237 12.958 11.3714 12.962L3.37164 13.0207C2.81937 13.0248 2.36839 12.5803 2.36433 12.0281L2.31906 5.85666C2.31711 5.59145 2.4206 5.33633 2.60676 5.14742L4.42172 3.30563ZM4.07344 7.70605C4.42977 7.2841 5.0607 7.2309 5.48265 7.58724L6.33613 8.16603L6.3154 5.34033C6.31135 4.78806 6.75576 4.33707 7.30803 4.33302C7.86031 4.32897 8.31129 4.77338 8.31534 5.32565L8.33607 8.15136L9.18097 7.56011C9.59764 7.19762 10.2293 7.24155 10.5918 7.65823C10.9543 8.0749 10.9103 8.70654 10.4937 9.06903L7.36171 11.6499L4.19224 9.11526C3.77029 8.75892 3.7171 8.128 4.07344 7.70605Z" fill="#2C2D2E"/>
</svg>
