<svg width="16" height="14" viewBox="0 0 16 14" fill="none" xmlns="http://www.w3.org/2000/svg">
<path fill-rule="evenodd" clip-rule="evenodd" d="M14.5413 0.946764C13.989 0.950816 13.5446 1.4018 13.5486 1.95407L13.6 8.95389C13.604 9.50615 14.055 9.95057 14.6073 9.94652C15.1595 9.94247 15.604 9.49148 15.5999 8.93921L15.5486 1.9394C15.5445 1.38713 15.0935 0.942713 14.5413 0.946764ZM7.82361 11.8344L8.56556 10.7985L8.73792 10.5578L10.3299 8.33513C10.4955 8.11269 10.605 7.82597 10.603 7.55233L10.5841 4.97612C10.576 3.8715 9.6738 2.98263 8.56918 2.99074L4.82029 3.01814C4.39582 3.02125 4.03767 3.26455 3.9182 3.59718L2.00273 3.02188L2.01799 2.97104L2.03594 2.9211C2.48002 1.68474 3.67128 1.02652 4.80562 1.01819L4.80567 1.01819L8.55449 0.990797L8.55456 0.990797C10.7634 0.974617 12.5679 2.75201 12.5841 4.96145L12.603 7.53766C12.6087 8.311 12.319 9.00524 11.9476 9.51124L9.44956 12.9989L9.39946 13.0689L9.34353 13.1343C8.87558 13.6814 8.14652 14.041 7.33679 13.9952C6.85579 13.9841 6.29706 13.8651 5.78595 13.5037C5.22795 13.109 4.93754 12.5747 4.79781 12.1174C4.67028 11.7 4.65332 11.3058 4.66032 11.0195L3.62756 11.0271C3.0905 11.031 2.19568 10.9175 1.4719 10.245C0.594258 9.4295 0.48203 8.30204 0.730839 7.36304C0.855609 6.89217 1.17924 5.78924 1.46022 4.84105C1.60312 4.35882 1.73869 3.90421 1.8385 3.57027L1.95798 3.17106L1.99102 3.06087L1.99971 3.03193L2.00195 3.02447L2.00252 3.02256L2.00267 3.02206L2.00271 3.02193C2.00272 3.0219 2.00273 3.02188 3.9182 3.59718C3.9182 3.59718 2.89515 7.00343 2.66412 7.87531C2.4331 8.74719 3.02991 9.03143 3.61289 9.02715L6.61359 9.00514C6.90515 9.003 6.90912 9.32942 6.84404 9.76731C6.82627 9.88689 6.80334 10.0148 6.77973 10.1466L6.77972 10.1466L6.7766 10.164C6.73622 10.3894 6.69438 10.6255 6.67318 10.8504C6.66834 10.9018 6.66457 10.9525 6.66215 11.0025C6.63537 11.5529 6.77129 12.0008 7.42229 11.996C7.57727 12.0138 7.72633 11.9481 7.82361 11.8344ZM8.65923 11.1354C8.65915 11.1355 8.65899 11.1328 8.659 11.1269C8.65932 11.1324 8.65932 11.1354 8.65923 11.1354Z" fill="#2C2D2E"/>
</svg>
