<svg width="17" height="16" viewBox="0 0 17 16" fill="none" xmlns="http://www.w3.org/2000/svg">
<path d="M3.84681 9.57173C3.45916 9.96511 3.4638 10.5983 3.85718 10.9859C4.25056 11.3736 4.88371 11.3689 5.27136 10.9755L6.99702 9.22436L7.89867 10.0017C8.27811 10.3288 8.84105 10.3247 9.21565 9.99204L10.1058 9.20155L11.857 10.9272C12.2503 11.3149 12.8835 11.3102 13.2711 10.9168C13.6588 10.5235 13.6541 9.89031 13.2608 9.50267L11.6046 7.87059L13.1899 6.46279C13.6028 6.09607 13.6403 5.46401 13.2736 5.05105C12.9069 4.6381 12.2748 4.60062 11.8618 4.96734L8.54189 7.91558L5.17904 5.01636C4.76074 4.65574 4.12931 4.70249 3.76868 5.12078C3.40806 5.53908 3.45481 6.17051 3.87311 6.53114L5.47889 7.91553L3.84681 9.57173Z" fill="#2C2D2E"/>
<path fill-rule="evenodd" clip-rule="evenodd" d="M0.513341 4.05314C0.501186 2.39633 1.83444 1.04337 3.49125 1.03121L13.491 0.957854C15.1478 0.945699 16.5008 2.27896 16.5129 3.93576L16.5716 11.9355C16.5838 13.5924 15.2505 14.9453 13.5937 14.9575L3.59396 15.0308C1.93715 15.043 0.584185 13.7097 0.57203 12.0529L0.513341 4.05314ZM3.50592 3.03116C2.95365 3.03521 2.50924 3.4862 2.51329 4.03847L2.57198 12.0383C2.57603 12.5905 3.02702 13.0349 3.57929 13.0309L13.579 12.9575C14.1313 12.9535 14.5757 12.5025 14.5717 11.9502L14.513 3.95044C14.5089 3.39817 14.0579 2.95375 13.5057 2.9578L3.50592 3.03116Z" fill="#2C2D2E"/>
</svg>
