<svg width="15" height="15" viewBox="0 0 15 15" fill="none" xmlns="http://www.w3.org/2000/svg">
<path fill-rule="evenodd" clip-rule="evenodd" d="M8.13854 1.06691C8.51334 1.21895 8.75965 1.58178 8.76261 1.98624L8.78095 4.48617L9.78093 4.47883C12.5423 4.45857 14.7972 6.68067 14.8175 9.44202L14.8505 13.9419C14.8545 14.4942 14.4101 14.9452 13.8578 14.9492C13.3056 14.9533 12.8546 14.5088 12.8505 13.9566C12.8404 12.5759 11.7129 11.4648 10.3323 11.475L8.83231 11.486L8.85065 13.9859C8.85361 14.3904 8.61265 14.7568 8.24012 14.9143C7.8676 15.0718 7.43686 14.9894 7.14877 14.7055L1.10492 8.7497C0.71154 8.36205 0.706895 7.7289 1.09454 7.33553L7.05037 1.29167C7.33426 1.00358 7.76374 0.914874 8.13854 1.06691ZM12.8231 10.2144L12.8175 9.45669C12.8054 7.79988 11.4524 6.46662 9.7956 6.47878L7.79565 6.49345C7.24338 6.4975 6.7924 6.05308 6.78834 5.50081L6.78038 4.41506L3.22099 8.02705L6.83299 11.5864L6.82502 10.5007C6.82097 9.94841 7.26539 9.49742 7.81766 9.49337L10.3176 9.47503C11.2426 9.46824 12.1045 9.74106 12.8231 10.2144Z" fill="#2C2D2E"/>
</svg>
