<svg width="15" height="18" viewBox="0 0 15 18" fill="none" xmlns="http://www.w3.org/2000/svg">
<path d="M10.0486 5.97051C10.0527 6.52278 9.60825 6.97377 9.05598 6.97782L5.05609 7.00716C4.50382 7.01122 4.05283 6.5668 4.04878 6.01453C4.04473 5.46226 4.48915 5.01127 5.04142 5.00722L9.04131 4.97787C9.59358 4.97382 10.0446 5.41824 10.0486 5.97051Z" fill="#2C2D2E"/>
<path d="M9.07799 9.97774C9.63026 9.97369 10.0747 9.5227 10.0706 8.97043C10.0666 8.41816 9.61559 7.97374 9.06332 7.97779L5.06343 8.00714C4.51115 8.01119 4.06674 8.46218 4.07079 9.01445C4.07484 9.56672 4.52583 10.0111 5.0781 10.0071L9.07799 9.97774Z" fill="#2C2D2E"/>
<path d="M7.10005 12.9923C7.65232 12.9883 8.09674 12.5373 8.09269 11.985C8.08864 11.4328 7.63765 10.9883 7.08538 10.9924L5.08543 11.0071C4.53316 11.0111 4.08874 11.4621 4.0928 12.0144C4.09685 12.5666 4.54784 13.0111 5.10011 13.007L7.10005 12.9923Z" fill="#2C2D2E"/>
<path fill-rule="evenodd" clip-rule="evenodd" d="M0.107576 14.0437C0.119731 15.7005 1.47269 17.0337 3.1295 17.0216L11.1293 16.9629C12.7861 16.9507 14.1194 15.5978 14.1072 13.941L14.0338 3.94122C14.0217 2.28441 12.6687 0.951155 11.0119 0.963309L3.01213 1.022C1.35532 1.03415 0.0220605 2.38712 0.0342153 4.04393L0.107576 14.0437ZM3.11483 15.0216C2.56256 15.0257 2.11157 14.5813 2.10752 14.029L2.03416 4.02925C2.03011 3.47698 2.47453 3.026 3.0268 3.02194L11.0266 2.96326C11.5789 2.9592 12.0298 3.40362 12.0339 3.95589L12.1073 13.9556C12.1113 14.5079 11.6669 14.9589 11.1146 14.9629L3.11483 15.0216Z" fill="#2C2D2E"/>
</svg>
