<svg width="13" height="18" viewBox="0 0 13 18" fill="none" xmlns="http://www.w3.org/2000/svg">
<path d="M6.80428 0.989736C7.90805 0.981638 8.8108 1.87124 8.8189 2.97501L11.8188 2.953C12.3711 2.94895 12.8221 3.39337 12.8261 3.94564C12.8302 4.49791 12.3858 4.9489 11.8335 4.95295L1.83376 5.02631C1.28149 5.03036 0.830503 4.58594 0.826452 4.03367C0.8224 3.4814 1.26682 3.03041 1.81909 3.02636L4.81901 3.00435C4.81091 1.90058 5.70051 0.997834 6.80428 0.989736Z" fill="#2C2D2E"/>
<path d="M3.92105 6.9878C3.85241 6.4398 3.35253 6.0512 2.80453 6.11983C2.25652 6.18847 1.86792 6.68836 1.93656 7.23636L2.94055 15.2525C3.06658 16.2586 3.92569 17.0113 4.93972 17.0038L8.90665 16.9747C9.92068 16.9673 10.7687 16.2021 10.8799 15.1942L11.7662 7.16425C11.8268 6.61529 11.4309 6.12116 10.8819 6.06058C10.333 5.99999 9.83885 6.39588 9.77826 6.94483L8.89198 14.9748L4.92505 15.0039L3.92105 6.9878Z" fill="#2C2D2E"/>
</svg>
